<mxfile host="app.diagrams.net" modified="2023-02-08T16:22:38.882Z" agent="5.0 (Windows NT 10.0; Win64; x64) AppleWebKit/537.36 (KHTML, like Gecko) Chrome/109.0.0.0 Safari/537.36 Edg/109.0.1518.78" etag="0YXEmDQa14uWI6pzCLTz" version="20.8.17" type="github">
  <diagram name="페이지-1" id="aGue1tee6N0AGcH31qvn">
    <mxGraphModel dx="998" dy="785" grid="1" gridSize="10" guides="1" tooltips="1" connect="1" arrows="1" fold="1" page="1" pageScale="1" pageWidth="827" pageHeight="1169" math="0" shadow="0">
      <root>
        <mxCell id="0" />
        <mxCell id="1" parent="0" />
        <mxCell id="6TO0KSr4-ywOU3QDqOWv-1" value="이용자&lt;br&gt;" style="shape=umlActor;verticalLabelPosition=bottom;verticalAlign=top;html=1;" vertex="1" parent="1">
          <mxGeometry x="50" y="200" width="30" height="60" as="geometry" />
        </mxCell>
        <mxCell id="6TO0KSr4-ywOU3QDqOWv-2" value="공지사항 서비스" style="shape=umlFrame;whiteSpace=wrap;html=1;pointerEvents=0;width=100;height=20;" vertex="1" parent="1">
          <mxGeometry x="113" y="20" width="527" height="570" as="geometry" />
        </mxCell>
        <mxCell id="6TO0KSr4-ywOU3QDqOWv-15" style="rounded=0;orthogonalLoop=1;jettySize=auto;html=1;exitX=0;exitY=0.5;exitDx=0;exitDy=0;endArrow=none;endFill=0;entryX=1;entryY=0.3333333333333333;entryDx=0;entryDy=0;entryPerimeter=0;" edge="1" parent="1" source="6TO0KSr4-ywOU3QDqOWv-3" target="6TO0KSr4-ywOU3QDqOWv-1">
          <mxGeometry relative="1" as="geometry" />
        </mxCell>
        <mxCell id="6TO0KSr4-ywOU3QDqOWv-3" value="회원가입" style="rounded=1;whiteSpace=wrap;html=1;arcSize=40;fontColor=#000000;fillColor=#ffffc0;strokeColor=#ff0000;" vertex="1" parent="1">
          <mxGeometry x="140" y="200" width="120" height="40" as="geometry" />
        </mxCell>
        <mxCell id="6TO0KSr4-ywOU3QDqOWv-17" style="edgeStyle=none;rounded=0;orthogonalLoop=1;jettySize=auto;html=1;exitX=0;exitY=0.5;exitDx=0;exitDy=0;endArrow=none;endFill=0;" edge="1" parent="1" source="6TO0KSr4-ywOU3QDqOWv-5">
          <mxGeometry relative="1" as="geometry">
            <mxPoint x="80" y="220" as="targetPoint" />
          </mxGeometry>
        </mxCell>
        <mxCell id="6TO0KSr4-ywOU3QDqOWv-23" style="edgeStyle=none;rounded=0;orthogonalLoop=1;jettySize=auto;html=1;exitX=1;exitY=0.5;exitDx=0;exitDy=0;entryX=0.5;entryY=1;entryDx=0;entryDy=0;dashed=1;endArrow=classic;endFill=1;" edge="1" parent="1" source="6TO0KSr4-ywOU3QDqOWv-5" target="6TO0KSr4-ywOU3QDqOWv-7">
          <mxGeometry relative="1" as="geometry" />
        </mxCell>
        <mxCell id="6TO0KSr4-ywOU3QDqOWv-5" value="게시판 보기" style="rounded=1;whiteSpace=wrap;html=1;arcSize=40;fontColor=#000000;fillColor=#ffffc0;strokeColor=#ff0000;" vertex="1" parent="1">
          <mxGeometry x="140" y="280" width="120" height="40" as="geometry" />
        </mxCell>
        <mxCell id="6TO0KSr4-ywOU3QDqOWv-18" style="edgeStyle=none;rounded=0;orthogonalLoop=1;jettySize=auto;html=1;exitX=0;exitY=0.5;exitDx=0;exitDy=0;endArrow=none;endFill=0;" edge="1" parent="1" source="6TO0KSr4-ywOU3QDqOWv-6">
          <mxGeometry relative="1" as="geometry">
            <mxPoint x="80" y="220" as="targetPoint" />
          </mxGeometry>
        </mxCell>
        <mxCell id="6TO0KSr4-ywOU3QDqOWv-24" style="edgeStyle=none;rounded=0;orthogonalLoop=1;jettySize=auto;html=1;exitX=1;exitY=0.5;exitDx=0;exitDy=0;entryX=0.5;entryY=1;entryDx=0;entryDy=0;dashed=1;endArrow=classic;endFill=1;" edge="1" parent="1" source="6TO0KSr4-ywOU3QDqOWv-6" target="6TO0KSr4-ywOU3QDqOWv-7">
          <mxGeometry relative="1" as="geometry" />
        </mxCell>
        <mxCell id="6TO0KSr4-ywOU3QDqOWv-6" value="게시글 보기" style="rounded=1;whiteSpace=wrap;html=1;arcSize=40;fontColor=#000000;fillColor=#ffffc0;strokeColor=#ff0000;" vertex="1" parent="1">
          <mxGeometry x="140" y="390" width="120" height="40" as="geometry" />
        </mxCell>
        <mxCell id="6TO0KSr4-ywOU3QDqOWv-16" style="edgeStyle=none;rounded=0;orthogonalLoop=1;jettySize=auto;html=1;exitX=0;exitY=0.5;exitDx=0;exitDy=0;endArrow=none;endFill=0;" edge="1" parent="1" source="6TO0KSr4-ywOU3QDqOWv-7">
          <mxGeometry relative="1" as="geometry">
            <mxPoint x="80" y="220" as="targetPoint" />
          </mxGeometry>
        </mxCell>
        <mxCell id="6TO0KSr4-ywOU3QDqOWv-7" value="회원 로그인" style="rounded=1;whiteSpace=wrap;html=1;arcSize=40;fontColor=#000000;fillColor=#ffffc0;strokeColor=#ff0000;" vertex="1" parent="1">
          <mxGeometry x="230" y="50" width="120" height="40" as="geometry" />
        </mxCell>
        <mxCell id="6TO0KSr4-ywOU3QDqOWv-20" value="&amp;lt;&amp;lt;include&amp;gt;&amp;gt;" style="edgeStyle=none;rounded=0;orthogonalLoop=1;jettySize=auto;html=1;exitX=1;exitY=0.5;exitDx=0;exitDy=0;endArrow=classic;endFill=1;dashed=1;entryX=0;entryY=0.5;entryDx=0;entryDy=0;" edge="1" parent="1" source="6TO0KSr4-ywOU3QDqOWv-7" target="6TO0KSr4-ywOU3QDqOWv-8">
          <mxGeometry relative="1" as="geometry" />
        </mxCell>
        <mxCell id="6TO0KSr4-ywOU3QDqOWv-8" value="인증" style="rounded=1;whiteSpace=wrap;html=1;arcSize=40;fontColor=#000000;fillColor=#ffffc0;strokeColor=#ff0000;" vertex="1" parent="1">
          <mxGeometry x="480" y="50" width="120" height="40" as="geometry" />
        </mxCell>
        <mxCell id="6TO0KSr4-ywOU3QDqOWv-21" value="&amp;lt;&amp;lt;extend&amp;gt;&amp;gt;" style="edgeStyle=none;rounded=0;orthogonalLoop=1;jettySize=auto;html=1;exitX=0;exitY=0.5;exitDx=0;exitDy=0;entryX=1;entryY=0.5;entryDx=0;entryDy=0;endArrow=classic;endFill=1;dashed=1;" edge="1" parent="1" source="6TO0KSr4-ywOU3QDqOWv-9" target="6TO0KSr4-ywOU3QDqOWv-7">
          <mxGeometry relative="1" as="geometry" />
        </mxCell>
        <mxCell id="6TO0KSr4-ywOU3QDqOWv-9" value="로그인 실패" style="rounded=1;whiteSpace=wrap;html=1;arcSize=40;fontColor=#000000;fillColor=#ffffc0;strokeColor=#ff0000;" vertex="1" parent="1">
          <mxGeometry x="480" y="120" width="120" height="40" as="geometry" />
        </mxCell>
        <mxCell id="6TO0KSr4-ywOU3QDqOWv-25" style="edgeStyle=none;rounded=0;orthogonalLoop=1;jettySize=auto;html=1;exitX=0;exitY=0.5;exitDx=0;exitDy=0;entryX=1;entryY=0.5;entryDx=0;entryDy=0;dashed=1;endArrow=classic;endFill=1;" edge="1" parent="1" source="6TO0KSr4-ywOU3QDqOWv-10" target="6TO0KSr4-ywOU3QDqOWv-5">
          <mxGeometry relative="1" as="geometry" />
        </mxCell>
        <mxCell id="6TO0KSr4-ywOU3QDqOWv-10" value="게시판 정렬하기" style="rounded=1;whiteSpace=wrap;html=1;arcSize=40;fontColor=#000000;fillColor=#ffffc0;strokeColor=#ff0000;" vertex="1" parent="1">
          <mxGeometry x="328.25" y="250" width="120" height="40" as="geometry" />
        </mxCell>
        <mxCell id="6TO0KSr4-ywOU3QDqOWv-26" style="edgeStyle=none;rounded=0;orthogonalLoop=1;jettySize=auto;html=1;exitX=0;exitY=0.5;exitDx=0;exitDy=0;entryX=1;entryY=0.5;entryDx=0;entryDy=0;dashed=1;endArrow=classic;endFill=1;" edge="1" parent="1" source="6TO0KSr4-ywOU3QDqOWv-11" target="6TO0KSr4-ywOU3QDqOWv-5">
          <mxGeometry relative="1" as="geometry" />
        </mxCell>
        <mxCell id="6TO0KSr4-ywOU3QDqOWv-11" value="게시판 검색" style="rounded=1;whiteSpace=wrap;html=1;arcSize=40;fontColor=#000000;fillColor=#ffffc0;strokeColor=#ff0000;" vertex="1" parent="1">
          <mxGeometry x="328.25" y="310" width="120" height="40" as="geometry" />
        </mxCell>
        <mxCell id="6TO0KSr4-ywOU3QDqOWv-27" style="edgeStyle=none;rounded=0;orthogonalLoop=1;jettySize=auto;html=1;exitX=0;exitY=0.5;exitDx=0;exitDy=0;entryX=1;entryY=0.5;entryDx=0;entryDy=0;dashed=1;endArrow=classic;endFill=1;" edge="1" parent="1" source="6TO0KSr4-ywOU3QDqOWv-12" target="6TO0KSr4-ywOU3QDqOWv-6">
          <mxGeometry relative="1" as="geometry" />
        </mxCell>
        <mxCell id="6TO0KSr4-ywOU3QDqOWv-12" value="게시글 쓰기, 수정, 삭제" style="rounded=1;whiteSpace=wrap;html=1;arcSize=40;fontColor=#000000;fillColor=#ffffc0;strokeColor=#ff0000;" vertex="1" parent="1">
          <mxGeometry x="304.75" y="390" width="143.5" height="40" as="geometry" />
        </mxCell>
        <mxCell id="6TO0KSr4-ywOU3QDqOWv-28" style="edgeStyle=none;rounded=0;orthogonalLoop=1;jettySize=auto;html=1;exitX=0;exitY=0.5;exitDx=0;exitDy=0;entryX=1;entryY=0.5;entryDx=0;entryDy=0;dashed=1;endArrow=classic;endFill=1;" edge="1" parent="1" source="6TO0KSr4-ywOU3QDqOWv-13" target="6TO0KSr4-ywOU3QDqOWv-6">
          <mxGeometry relative="1" as="geometry" />
        </mxCell>
        <mxCell id="6TO0KSr4-ywOU3QDqOWv-13" value="댓글 쓰기, 수정, 삭제" style="rounded=1;whiteSpace=wrap;html=1;arcSize=40;fontColor=#000000;fillColor=#ffffc0;strokeColor=#ff0000;" vertex="1" parent="1">
          <mxGeometry x="304.75" y="460" width="143.5" height="40" as="geometry" />
        </mxCell>
      </root>
    </mxGraphModel>
  </diagram>
</mxfile>
